<?xml version="1.0" standalone="no"?><!DOCTYPE svg PUBLIC "-//W3C//DTD SVG 1.1//EN" "http://www.w3.org/Graphics/SVG/1.1/DTD/svg11.dtd"><svg t="1735098482980" class="icon" viewBox="0 0 1024 1024" version="1.1" xmlns="http://www.w3.org/2000/svg" p-id="5911" xmlns:xlink="http://www.w3.org/1999/xlink" width="200" height="200"><path d="M512.25915 0a511.992578 511.992578 0 1 0 511.740985 511.740985A512.495765 512.495765 0 0 0 512.25915 0z m0 998.574222a486.833238 486.833238 0 1 1 486.581644-486.833237 487.336424 487.336424 0 0 1-486.581644 486.833237z" fill="#ef4444" p-id="5912"></path><path d="M708.502006 316.756096a574.890929 574.890929 0 0 0-85.793351-71.955713c-32.203956-20.882253-52.583022-25.15934-64.156318-13.837638a22.643406 22.643406 0 0 0-3.522308 5.031868l-281.784613 281.784613a16.856758 16.856758 0 0 0-3.522308 2.264341c-14.340824 14.340824 0 44.028846 20.127473 73.465274L231.732504 651.626917l13.837638 13.586044L302.430251 609.359226a743.45851 743.45851 0 0 0 54.092582 60.63401 655.904005 655.904005 0 0 0 60.382417 53.840989L360.045141 779.939554l13.837637 13.586044 57.866483-57.866483a118.752087 118.752087 0 0 0 57.866483 25.15934 22.14022 22.14022 0 0 0 15.850384-5.786648 21.637033 21.637033 0 0 0 2.515934-4.025495l282.539394-281.784613a12.328077 12.328077 0 0 0 3.773901-2.515934c11.573297-11.321703 7.044615-31.700769-13.837638-63.904725a560.801698 560.801698 0 0 0-71.955713-86.044944z m-136.112032-21.637033a574.890929 574.890929 0 0 0 71.955714 85.793351A560.801698 560.801698 0 0 0 730.139038 452.868128a160.013405 160.013405 0 0 0 25.159341 14.592417l-251.593405 251.593405a459.66115 459.66115 0 0 0-86.296537-112.713845 455.635655 455.635655 0 0 0-112.965439-86.296538l251.593405-251.593404a196.242855 196.242855 0 0 0 16.353571 26.6689z m118.500493 39.500165c56.105329 56.356923 81.013076 98.373021 84.032197 112.965438-14.340824-3.270714-56.356923-28.178461-112.713845-84.28379S580.94415 264.676261 579.182996 251.593404c13.082857 1.761154 55.350549 26.668901 111.707471 83.025824z m-240.774888 382.673568l7.799396-7.799396-13.586044-13.837637-10.31533 10.31533a620.429335 620.429335 0 0 1-60.885603-53.840989 586.212632 586.212632 0 0 1-53.589396-60.885604l10.063737-10.063736-13.586044-13.837637-8.050989 8.050989a136.363625 136.363625 0 0 1-19.121099-35.977857c14.592417 3.019121 56.608516 27.926868 112.965439 84.283791s81.013076 98.373021 84.28379 112.713845a122.022801 122.022801 0 0 1-35.977857-19.121099z" fill="#ef4444" p-id="5913"></path><path d="M461.940469 516.269666a10.063736 10.063736 0 0 0 9.057363 5.031868h42.016098L503.704974 580.929171a9.308956 9.308956 0 0 0 5.535055 10.818516h3.773901a11.07011 11.07011 0 0 0 7.799396-3.270714l72.207307-102.398516a5.283461 5.283461 0 0 0 0-3.019121 14.340824 14.340824 0 0 0 0-6.541428v-1.50956a10.063736 10.063736 0 0 0-9.057363-5.031869h-34.468296l10.31533-60.130823v-2.012747a9.308956 9.308956 0 0 0-5.786649-9.057363 9.560549 9.560549 0 0 0-12.328076 3.019121l-79.000329 102.901702a10.063736 10.063736 0 0 0 0 10.818517z m80.006703-90.573626l-8.805769 50.318681a6.793022 6.793022 0 0 0 2.012747 5.786648 8.050989 8.050989 0 0 0 5.535055 2.515935h36.481044l-56.356923 79.503515 8.554176-50.318681a6.793022 6.793022 0 0 0-2.012748-5.786648 6.541429 6.541429 0 0 0-5.535054-2.515934h-41.764506z" fill="#ef4444" p-id="5914"></path></svg>